<svg width="24" height="24" viewBox="0 0 24 24" fill="none" xmlns="http://www.w3.org/2000/svg">
<path d="M21.3333 0H2.66667C1.19391 0 0 1.19391 0 2.66667V21.3333C0 22.8061 1.19391 24 2.66667 24H21.3333C22.8061 24 24 22.8061 24 21.3333V2.66667C24 1.19391 22.8061 0 21.3333 0Z" fill="#4394F0"/>
<path fill-rule="evenodd" clip-rule="evenodd" d="M20.0607 5.93934C20.6464 6.52513 20.6464 7.47487 20.0607 8.06066L10.0607 18.0607C9.47487 18.6464 8.52513 18.6464 7.93934 18.0607L3.93934 14.0607C3.35355 13.4749 3.35355 12.5251 3.93934 11.9393C4.52513 11.3536 5.47487 11.3536 6.06066 11.9393L9 14.8787L17.9393 5.93934C18.5251 5.35355 19.4749 5.35355 20.0607 5.93934Z" fill="white"/>
</svg>
