<svg width="48" height="48" viewBox="0 0 48 48" fill="none" xmlns="http://www.w3.org/2000/svg">
<g clip-path="url(#clip0_2_236)">
<rect x="16.25" y="3.87769" width="19.8561" height="36.5" rx="2.09749" fill="#CBCCD7" stroke="#878D96" stroke-width="1.5"/>
<path d="M20.9423 4.89674L20.5 3.12769H31.8899L31.4477 4.89674C31.2892 5.53054 30.7198 5.97517 30.0664 5.97517H22.3235C21.6702 5.97517 21.1007 5.53054 20.9423 4.89674Z" fill="#878D96"/>
<path d="M46.0115 42.0423L45.6469 42.5799C42.555 47.1379 36.3536 48.3265 31.7955 45.2347L29.5484 43.7104L22.8065 39.3271C21.754 38.6428 21.4684 37.2277 22.1732 36.1888C22.507 35.6967 23.0226 35.3573 23.6066 35.2454L24.2779 35.1167C25.2101 34.938 26.1755 35.1062 26.9925 35.5896L28.5394 36.5048L25.0589 20.0784C24.7867 18.7935 25.6052 17.5305 26.8893 17.2543C28.1773 16.9772 29.4458 17.7976 29.7213 19.086L32.3696 31.4719L31.1834 25.581C30.8917 24.1326 31.8334 22.7233 33.2831 22.4385C34.7532 22.1497 36.1725 23.1285 36.425 24.6052L36.4437 24.7143C36.7096 23.866 37.4172 23.1871 38.3457 22.9983C39.7299 22.7168 41.0749 23.6286 41.3258 25.0186L41.3632 25.2258C41.6281 24.5009 42.2677 23.9314 43.0956 23.8032C44.2551 23.6236 45.3518 24.3849 45.5889 25.534L47.4757 34.6788C48.0021 37.2303 47.474 39.8863 46.0115 42.0423Z" fill="#FEDDCE"/>
<path d="M46.0115 42.0423L45.6469 42.5799C42.555 47.1379 36.3536 48.3265 31.7955 45.2347L29.5484 43.7104L22.8065 39.3271C21.754 38.6428 21.4684 37.2277 22.1732 36.1888C22.507 35.6967 23.0226 35.3573 23.6066 35.2454L24.2779 35.1167C25.2101 34.938 26.1755 35.1062 26.9925 35.5896L28.5394 36.5048L25.0589 20.0784C24.7867 18.7935 25.6052 17.5305 26.8893 17.2543C28.1773 16.9772 29.4458 17.7976 29.7213 19.086L32.3696 31.4719L31.1834 25.581C30.8917 24.1326 31.8334 22.7233 33.2831 22.4385C34.7532 22.1497 36.1725 23.1285 36.425 24.6052L36.4437 24.7143C36.7096 23.866 37.4172 23.1871 38.3457 22.9983C39.7299 22.7168 41.0749 23.6286 41.3258 25.0186L41.3632 25.2258C41.6281 24.5009 42.2677 23.9314 43.0956 23.8032C44.2551 23.6236 45.3518 24.3849 45.5889 25.534L47.4757 34.6788C48.0021 37.2303 47.474 39.8863 46.0115 42.0423Z" fill="#FFD5D0"/>
<path d="M30.9991 23.5L32.4203 29.337" stroke="#878D96" stroke-width="1.2" stroke-linecap="round"/>
<path d="M36.4992 23.5L37.5992 28.2869" stroke="#878D96" stroke-width="1.2" stroke-linecap="round"/>
<path d="M41.5368 24.6116L42.1997 27.7619" stroke="#878D96" stroke-width="1.2" stroke-linecap="round"/>
<g clip-path="url(#clip1_2_236)">
<path d="M9.01512 6.31819L1.70756 9.6066C1.27694 9.80038 1 10.2287 1 10.7009V16.8086C1 17.232 1.05028 17.6562 1.18518 18.0575C2.70043 22.5647 6.90508 25.0418 9.37222 25.9234C9.77989 26.0691 10.223 26.0698 10.6353 25.9375C15.7662 24.2914 18.1529 20.2482 18.8614 17.9607C18.9665 17.6214 19 17.2672 19 16.9121V10.7009C19 10.2287 18.7231 9.80038 18.2924 9.6066L10.9849 6.31819C10.3585 6.03634 9.64146 6.03634 9.01512 6.31819Z" fill="#4F92F7"/>
<path fill-rule="evenodd" clip-rule="evenodd" d="M10 26.0347C9.78605 26.0368 9.5715 26.0039 9.36473 25.9376C4.23379 24.2915 1.84709 20.2482 1.13861 17.9607C1.03354 17.6215 1 17.2673 1 16.9121V10.7009C1 10.2287 1.27694 9.80042 1.70756 9.60664L9.01512 6.31823C9.32829 6.17731 9.66415 6.10685 10 6.10685V26.0347Z" fill="#2076FF"/>
<path d="M8.24878 15.4034V13.2159C8.24878 12.2494 9.03228 11.4659 9.99878 11.4659V11.4659C10.9653 11.4659 11.7488 12.2494 11.7488 13.2159V15.4034" stroke="white" stroke-width="1.3125"/>
<rect x="6.0625" y="14.0909" width="7.875" height="5.72727" rx="1.3125" fill="white"/>
</g>
</g>
<defs>
<clipPath id="clip0_2_236">
<rect width="48" height="48" fill="white"/>
</clipPath>
<clipPath id="clip1_2_236">
<rect width="18" height="20.25" fill="white" transform="translate(1 5.875)"/>
</clipPath>
</defs>
</svg>
