<svg width="88" height="88" viewBox="0 0 88 88" fill="none" xmlns="http://www.w3.org/2000/svg">
<circle cx="44" cy="44" r="44" fill="#F4F4F4"/>
<mask id="mask0_330_491" style="mask-type:alpha" maskUnits="userSpaceOnUse" x="0" y="0" width="88" height="88">
<circle cx="44" cy="44" r="44" fill="#F0F0F0"/>
</mask>
<g mask="url(#mask0_330_491)">
<path d="M14.3 24C14.3 19.7474 17.7474 16.3 22 16.3H66C70.2526 16.3 73.7 19.7474 73.7 24V90.7H14.3V24Z" fill="white" stroke="#DDE1E6" stroke-width="0.6"/>
<path d="M18 26C18 22.6863 20.6863 20 24 20H64C67.3137 20 70 22.6863 70 26V95H18V26Z" fill="#BCD4EA"/>
<rect x="24" y="34" width="40" height="29" rx="2.6739" fill="white"/>
<rect x="28" y="50" width="32" height="8" rx="1.00202" fill="#FADE39"/>
<rect x="28" y="42" width="28" height="2" rx="1" fill="#DDE1E6"/>
<rect x="28" y="38" width="17.826" height="2" rx="1" fill="#DDE1E6"/>
<path d="M57.5823 65.7623L57.6791 72.6788C57.7161 75.3267 56.6619 77.8747 54.7605 79.7328C50.7782 83.6246 44.3698 83.5759 40.447 79.6241L38.9062 78.072L33.1476 71.3045C32.3604 70.3794 32.4238 69.009 33.2931 68.1595C33.7336 67.729 34.3282 67.4895 34.9466 67.4935L35.3633 67.4962C36.3842 67.5028 37.3461 67.9719 37.9749 68.7699L39.3306 70.49L39.1483 54.8738C39.1336 53.6091 40.1518 52.5706 41.4264 52.5503C42.7082 52.53 43.7628 53.5469 43.779 54.8187L43.8829 62.9778C44.0029 61.6754 45.1083 60.6521 46.4568 60.6546C47.9018 60.6574 49.0629 61.8369 49.0317 63.2703L48.9615 66.4866L49.0177 64.3263C49.0502 63.0744 50.0901 62.0807 51.3521 62.0955C52.6235 62.1105 53.6435 63.1429 53.6331 64.4045L53.6223 65.7228C53.6583 64.6481 54.5618 63.7975 55.6515 63.8247C56.715 63.8513 57.5675 64.7068 57.5823 65.7623Z" fill="white" stroke="#F6BD2B" stroke-width="1.4" stroke-linecap="round" stroke-linejoin="round"/>
</g>
</svg>
