<svg width="88" height="88" viewBox="0 0 88 88" fill="none" xmlns="http://www.w3.org/2000/svg">
<circle cx="44" cy="44" r="44" fill="#F4F4F4"/>
<mask id="mask0_330_509" style="mask-type:alpha" maskUnits="userSpaceOnUse" x="0" y="0" width="88" height="88">
<circle cx="44" cy="44" r="44" fill="#F0F0F0"/>
</mask>
<g mask="url(#mask0_330_509)">
<path d="M14.4 24C14.4 19.8026 17.8026 16.4 22 16.4H66C70.1974 16.4 73.6 19.8026 73.6 24V90.6H14.4V24Z" fill="white" stroke="#DDE1E6" stroke-width="0.8"/>
<path d="M18 26C18 22.6863 20.6863 20 24 20H64C67.3137 20 70 22.6863 70 26V95H18V26Z" fill="#F8F8F8"/>
<path d="M43.5042 32.3575L37.7522 34.5731C37.3816 34.7158 37.1371 35.072 37.1371 35.4692V41.5804C37.1371 42.1231 37.1946 42.6684 37.3856 43.1763C38.6467 46.53 41.7959 48.0367 43.6797 48.6613C44.0151 48.7725 44.3768 48.774 44.7132 48.6659C48.5376 47.4374 50.412 44.8236 51.0582 43.0527C51.2142 42.6252 51.2521 42.1682 51.2521 41.7132V35.4692C51.2521 35.072 51.0076 34.7158 50.637 34.5731L44.885 32.3575C44.4406 32.1863 43.9486 32.1863 43.5042 32.3575Z" fill="#3157D3"/>
<ellipse cx="44.1944" cy="39.9324" rx="3.92085" ry="3.65946" fill="#FADE39"/>
<path d="M41.8418 44.1357V42.0238L44.4557 42.808L42.2531 44.3498C42.0799 44.4711 41.8418 44.3471 41.8418 44.1357Z" fill="#FADE39"/>
<circle cx="25.5001" cy="56.6891" r="2.31112" fill="#FFC700"/>
<circle cx="33.0112" cy="56.6891" r="2.31112" fill="#FFC700"/>
<circle cx="40.5224" cy="56.6891" r="2.31112" fill="#FFC700"/>
<rect x="45.7224" y="56.4001" width="4.62225" height="0.577781" fill="#C1C7CD"/>
<rect x="53.2336" y="56.4001" width="4.62225" height="0.577781" fill="#C1C7CD"/>
<rect x="60.7447" y="56.4001" width="4.62225" height="0.577781" fill="#C1C7CD"/>
</g>
</svg>
