<svg width="88" height="88" viewBox="0 0 88 88" fill="none" xmlns="http://www.w3.org/2000/svg">
<circle cx="44" cy="44" r="44" fill="#F4F4F4"/>
<rect x="14.4" y="33.4" width="59.2" height="21.2" rx="3.6" fill="url(#paint0_linear_330_531)" stroke="#4394F0" stroke-width="0.8" stroke-dasharray="2 2"/>
<circle cx="49" cy="45" r="7" fill="#5DA9FF"/>
<path d="M65.4112 55.7624L65.508 62.6789C65.5451 65.3268 64.4908 67.8748 62.5894 69.7329C58.6071 73.6247 52.1987 73.576 48.2759 69.6243L46.7351 68.0721L40.9765 61.3046C40.1894 60.3795 40.2527 59.0091 41.122 58.1596C41.5625 57.7291 42.1572 57.4896 42.7755 57.4936L43.1923 57.4963C44.2131 57.5029 45.175 57.9721 45.8039 58.77L47.1595 60.4901L46.9773 44.8739C46.9625 43.6092 47.9807 42.5707 49.2553 42.5505C50.5371 42.5301 51.5917 43.547 51.6079 44.8189L51.7118 52.9779C51.8319 51.6756 52.9372 50.6522 54.2857 50.6548C55.7307 50.6575 56.8919 51.8371 56.8606 53.2704L56.7905 56.4867L56.8466 54.3264C56.8791 53.0746 57.919 52.0809 59.181 52.0957C60.4525 52.1106 61.4724 53.143 61.4621 54.4046L61.4512 55.7229C61.4873 54.6483 62.3907 53.7976 63.4804 53.8249C64.544 53.8514 65.3965 54.7069 65.4112 55.7624Z" fill="white" stroke="#5DA9FF" stroke-width="1.4" stroke-linecap="round" stroke-linejoin="round"/>
<defs>
<linearGradient id="paint0_linear_330_531" x1="44" y1="33" x2="44" y2="55" gradientUnits="userSpaceOnUse">
<stop stop-color="#D7DFF5" stop-opacity="0.2"/>
<stop offset="1" stop-color="#D7DFF5"/>
</linearGradient>
</defs>
</svg>
